<svg width="70" height="70" viewBox="0 0 70 70" fill="none" xmlns="http://www.w3.org/2000/svg">
<rect x="2.5" y="2.5" width="65" height="65" stroke="white" stroke-width="5"/>
<path fill-rule="evenodd" clip-rule="evenodd" d="M31.2162 46.2063C29.9155 46.7207 28.4947 47 27 47C20.3726 47 15 41.6274 15 35C15 28.3726 20.3726 23 27 23C28.4947 23 29.9155 23.2793 31.2162 23.7937C32.4224 22.4188 33.8468 21.2401 35.4354 20.3118C32.9942 18.8422 30.1231 18 27 18C17.6112 18 10 25.6112 10 35C10 44.3888 17.6112 52 27 52C30.1231 52 32.9942 51.1578 35.4354 49.6882C33.8468 48.7599 32.4224 47.5812 31.2162 46.2063Z" fill="white"/>
<circle cx="44" cy="35" r="14.5" stroke="white" stroke-width="5"/>
</svg>
